<mxfile host="app.diagrams.net" modified="2021-04-01T16:52:41.568Z" agent="5.0 (Macintosh; Intel Mac OS X 10_15_7) AppleWebKit/537.36 (KHTML, like Gecko) Chrome/89.0.4389.90 Safari/537.36" etag="lZGYsdhHRnUCvXm3Sb6P" version="14.4.9" type="github">
  <diagram id="Pe28DnI3vjl9g1rljiI1" name="Page-1">
    <mxGraphModel dx="670" dy="391" grid="1" gridSize="10" guides="1" tooltips="1" connect="1" arrows="1" fold="1" page="1" pageScale="1" pageWidth="850" pageHeight="1100" math="0" shadow="0">
      <root>
        <mxCell id="0" />
        <mxCell id="1" parent="0" />
        <mxCell id="R1xA2vM4cjZbvVM44vxN-3" style="edgeStyle=orthogonalEdgeStyle;rounded=0;orthogonalLoop=1;jettySize=auto;html=1;" parent="1" source="GxSYJKZSYVQrgIxvNFur-1" target="R1xA2vM4cjZbvVM44vxN-1" edge="1">
          <mxGeometry relative="1" as="geometry" />
        </mxCell>
        <mxCell id="GxSYJKZSYVQrgIxvNFur-1" value="" style="outlineConnect=0;fontColor=#232F3E;gradientColor=none;fillColor=#3334B9;strokeColor=none;dashed=0;verticalLabelPosition=bottom;verticalAlign=top;align=center;html=1;fontSize=12;fontStyle=0;aspect=fixed;pointerEvents=1;shape=mxgraph.aws4.rds_postgresql_instance;" parent="1" vertex="1">
          <mxGeometry x="520" y="150" width="84" height="84" as="geometry" />
        </mxCell>
        <mxCell id="R1xA2vM4cjZbvVM44vxN-2" style="edgeStyle=orthogonalEdgeStyle;rounded=0;orthogonalLoop=1;jettySize=auto;html=1;" parent="1" source="GxSYJKZSYVQrgIxvNFur-5" target="R1xA2vM4cjZbvVM44vxN-1" edge="1">
          <mxGeometry relative="1" as="geometry" />
        </mxCell>
        <mxCell id="GxSYJKZSYVQrgIxvNFur-5" value="" style="outlineConnect=0;fontColor=#232F3E;gradientColor=none;fillColor=#3334B9;strokeColor=none;dashed=0;verticalLabelPosition=bottom;verticalAlign=top;align=center;html=1;fontSize=12;fontStyle=0;aspect=fixed;pointerEvents=1;shape=mxgraph.aws4.rds_postgresql_instance;" parent="1" vertex="1">
          <mxGeometry x="520" y="255" width="84" height="84" as="geometry" />
        </mxCell>
        <mxCell id="R1xA2vM4cjZbvVM44vxN-4" style="edgeStyle=orthogonalEdgeStyle;rounded=0;orthogonalLoop=1;jettySize=auto;html=1;" parent="1" source="GxSYJKZSYVQrgIxvNFur-7" target="R1xA2vM4cjZbvVM44vxN-1" edge="1">
          <mxGeometry relative="1" as="geometry" />
        </mxCell>
        <mxCell id="GxSYJKZSYVQrgIxvNFur-7" value="" style="outlineConnect=0;fontColor=#232F3E;gradientColor=none;fillColor=#3334B9;strokeColor=none;dashed=0;verticalLabelPosition=bottom;verticalAlign=top;align=center;html=1;fontSize=12;fontStyle=0;aspect=fixed;pointerEvents=1;shape=mxgraph.aws4.rds_postgresql_instance;" parent="1" vertex="1">
          <mxGeometry x="520" y="360" width="84" height="84" as="geometry" />
        </mxCell>
        <mxCell id="GxSYJKZSYVQrgIxvNFur-10" value="" style="endArrow=none;dashed=1;html=1;dashPattern=1 3;strokeWidth=2;" parent="1" edge="1">
          <mxGeometry width="50" height="50" relative="1" as="geometry">
            <mxPoint x="360" y="480" as="sourcePoint" />
            <mxPoint x="360" y="120" as="targetPoint" />
          </mxGeometry>
        </mxCell>
        <mxCell id="GxSYJKZSYVQrgIxvNFur-11" value="" style="outlineConnect=0;dashed=0;verticalLabelPosition=bottom;verticalAlign=top;align=center;html=1;shape=mxgraph.aws3.postgre_sql_instance;fillColor=#2E73B8;gradientColor=none;" parent="1" vertex="1">
          <mxGeometry x="140" y="265.5" width="60" height="63" as="geometry" />
        </mxCell>
        <mxCell id="R1xA2vM4cjZbvVM44vxN-5" style="edgeStyle=orthogonalEdgeStyle;rounded=0;orthogonalLoop=1;jettySize=auto;html=1;" parent="1" source="GAakc3ZR-0woLmuLiqy9-1" target="R1xA2vM4cjZbvVM44vxN-1" edge="1">
          <mxGeometry relative="1" as="geometry" />
        </mxCell>
        <mxCell id="R1xA2vM4cjZbvVM44vxN-6" style="edgeStyle=orthogonalEdgeStyle;rounded=0;orthogonalLoop=1;jettySize=auto;html=1;entryX=1;entryY=0.5;entryDx=0;entryDy=0;entryPerimeter=0;" parent="1" source="GAakc3ZR-0woLmuLiqy9-1" target="GxSYJKZSYVQrgIxvNFur-11" edge="1">
          <mxGeometry relative="1" as="geometry" />
        </mxCell>
        <mxCell id="GAakc3ZR-0woLmuLiqy9-1" value="" style="aspect=fixed;html=1;points=[];align=center;image;fontSize=12;image=img/lib/mscae/SchedulerJobCollection.svg;" parent="1" vertex="1">
          <mxGeometry x="270" y="275.5" width="50" height="43" as="geometry" />
        </mxCell>
        <mxCell id="R1xA2vM4cjZbvVM44vxN-1" value="" style="outlineConnect=0;fontColor=#232F3E;gradientColor=none;fillColor=#3334B9;strokeColor=none;dashed=0;verticalLabelPosition=bottom;verticalAlign=top;align=center;html=1;fontSize=12;fontStyle=0;aspect=fixed;pointerEvents=1;shape=mxgraph.aws4.rds_postgresql_instance;" parent="1" vertex="1">
          <mxGeometry x="390" y="255" width="84" height="84" as="geometry" />
        </mxCell>
        <mxCell id="R1xA2vM4cjZbvVM44vxN-11" value="" style="shape=image;html=1;verticalAlign=top;verticalLabelPosition=bottom;labelBackgroundColor=#ffffff;imageAspect=0;aspect=fixed;image=https://cdn2.iconfinder.com/data/icons/social-flat-buttons-3/512/foursquare-128.png" parent="1" vertex="1">
          <mxGeometry x="530" y="190" width="38" height="38" as="geometry" />
        </mxCell>
        <mxCell id="R1xA2vM4cjZbvVM44vxN-12" value="" style="shape=image;html=1;verticalAlign=top;verticalLabelPosition=bottom;labelBackgroundColor=#ffffff;imageAspect=0;aspect=fixed;image=https://cdn2.iconfinder.com/data/icons/social-flat-buttons-3/512/foursquare-128.png" parent="1" vertex="1">
          <mxGeometry x="530" y="295" width="38" height="38" as="geometry" />
        </mxCell>
        <mxCell id="R1xA2vM4cjZbvVM44vxN-13" value="" style="shape=image;html=1;verticalAlign=top;verticalLabelPosition=bottom;labelBackgroundColor=#ffffff;imageAspect=0;aspect=fixed;image=https://cdn2.iconfinder.com/data/icons/social-flat-buttons-3/512/foursquare-128.png" parent="1" vertex="1">
          <mxGeometry x="530" y="400" width="38" height="38" as="geometry" />
        </mxCell>
        <mxCell id="R1xA2vM4cjZbvVM44vxN-14" value="&lt;font style=&quot;font-size: 17px&quot;&gt;&lt;b&gt;Fuctions + pg_cron&lt;/b&gt;&lt;/font&gt;" style="text;html=1;align=center;verticalAlign=middle;resizable=0;points=[];autosize=1;" parent="1" vertex="1">
          <mxGeometry x="420" y="460" width="170" height="20" as="geometry" />
        </mxCell>
      </root>
    </mxGraphModel>
  </diagram>
</mxfile>
